<!DOCTYPE svg PUBLIC "-//W3C//DTD SVG 1.1//EN" "http://www.w3.org/Graphics/SVG/1.1/DTD/svg11.dtd">
<!-- Uploaded to: SVG Repo, www.svgrepo.com, Transformed by: SVG Repo Mixer Tools -->
<svg height="800px" width="800px" version="1.1" id="Layer_1" xmlns="http://www.w3.org/2000/svg" xmlns:xlink="http://www.w3.org/1999/xlink" viewBox="0 0 512 512" xml:space="preserve" fill="#000000">
<g id="SVGRepo_bgCarrier" stroke-width="0"/>
<g id="SVGRepo_tracerCarrier" stroke-linecap="round" stroke-linejoin="round"/>
<g id="SVGRepo_iconCarrier"> <path style="fill:#C4A174;" d="M363.731,298.519V167.657h23.264v-45.45c0-20.787-16.845-37.633-37.622-37.633H110.096 c-20.776,0-37.622,16.845-37.622,37.633v45.45h23.264v130.162"/> <path style="fill:#FFE1B6;" d="M440.029,298.519V167.657h23.264v-45.45c0-20.787-16.845-37.633-37.622-37.633H186.395 c-20.776,0-37.622,16.845-37.622,37.633v45.45h23.264v130.162"/> <path style="fill:#F4C67D;" d="M385.733,279.866l20.738,20.739c6.628,6.639,6.628,17.389,0,24.018 c-6.628,6.628-17.378,6.628-24.018,0l-44.745-44.756h-85.004l20.739,20.738c6.628,6.639,6.628,17.389,0,24.018 c-6.639,6.628-17.389,6.628-24.018,0l-44.756-44.756h-85.004l20.739,20.738c6.639,6.639,6.639,17.389,0,24.018 c-6.628,6.628-17.378,6.628-24.005,0l-44.101-44.101c-36.103,4.802-63.972,35.716-63.972,73.153 c0,20.375,8.267,38.831,21.617,52.181s31.805,21.617,52.181,21.617h347.745c40.752,0,73.797-33.047,73.797-73.797 c0-20.375-8.267-38.831-21.617-52.193c-13.35-13.361-31.805-21.617-52.181-21.617h-44.135V279.866z"/> <g> <path style="fill:#E0B16E;" d="M52.744,353.674c0-25.216,12.653-47.457,31.939-60.769l-12.385-12.385 c-36.103,4.802-63.972,35.716-63.972,73.153c0,20.375,8.267,38.831,21.617,52.181s31.805,21.617,52.181,21.617h44.417 c-20.375,0-38.831-8.267-52.181-21.617C61.012,392.506,52.744,374.051,52.744,353.674z"/> <path style="fill:#E0B16E;" d="M140.404,300.606c6.64,6.64,6.64,17.389,0,24.019c-6.629,6.629-17.378,6.629-24.008,0 l-35.323-35.334h48.015L140.404,300.606z"/> <path style="fill:#E0B16E;" d="M406.475,300.606c6.629,6.64,6.629,17.389,0,24.019s-17.378,6.629-24.019,0l-35.323-35.334h48.026 L406.475,300.606z"/> <path style="fill:#E0B16E;" d="M273.445,300.606c6.629,6.64,6.629,17.389,0,24.019c-6.64,6.629-17.389,6.629-24.019,0 l-35.323-35.334h48.026L273.445,300.606z"/> </g> <path d="M487.944,295.573c-15.505-15.516-36.128-24.061-58.071-24.061h-44.14c-3.368,0-6.406,2.029-7.694,5.141 c-0.574,1.386-0.73,2.862-0.54,4.286H350.58l-6.987-6.988c-1.561-1.562-3.679-2.44-5.889-2.44h-85.004 c-3.369,0-6.405,2.029-7.694,5.141c-0.574,1.386-0.73,2.862-0.54,4.286h-26.924l-6.977-6.985c-1.562-1.564-3.681-2.443-5.892-2.443 h-85.004c-3.368,0-6.404,2.028-7.693,5.139c-0.575,1.386-0.731,2.863-0.541,4.289H84.52l-6.332-6.333 c-1.834-1.834-4.421-2.707-6.988-2.366C30.609,277.646,0,312.644,0,353.65c0,21.944,8.546,42.567,24.06,58.068 c15.515,15.515,36.137,24.06,58.068,24.06h347.744c7.643,0,15.214-1.052,22.504-3.124c4.424-1.258,6.99-5.864,5.732-10.288 c-1.258-4.424-5.863-6.99-10.289-5.733c-5.806,1.651-11.845,2.488-17.947,2.488H82.128c-17.482,0-33.922-6.811-46.292-19.183 c-12.368-12.357-19.179-28.796-19.179-46.289c0-31.34,22.42-58.277,52.775-64.247l41.075,41.086 c4.779,4.779,11.133,7.411,17.892,7.411c6.759,0,13.114-2.632,17.888-7.406c4.788-4.78,7.424-11.137,7.424-17.899 c0-6.76-2.635-13.118-7.42-17.902l-6.525-6.525h61.456l42.314,42.322c9.862,9.862,25.919,9.863,35.797,0 c9.861-9.861,9.863-25.916-0.001-35.796l-6.525-6.525h61.448l42.315,42.327c9.877,9.858,25.932,9.856,35.79-0.004 c9.863-9.861,9.865-25.918,0.001-35.797l-6.526-6.525h24.034c17.492,0,33.93,6.811,46.289,19.178 c12.371,12.381,19.183,28.826,19.183,46.304c0,19.874-8.879,38.447-24.361,50.955c-3.578,2.892-4.134,8.135-1.244,11.712 c1.646,2.037,4.053,3.095,6.484,3.095c1.837,0,3.688-0.605,5.229-1.851C500.865,401.876,512,378.581,512,353.651 C512,331.725,503.457,311.1,487.944,295.573z M134.514,318.712c-1.632,1.633-3.804,2.533-6.114,2.533s-4.482-0.899-6.114-2.532 l-21.113-21.118h24.471l8.871,8.876c1.639,1.639,2.541,3.814,2.541,6.125C137.056,314.904,136.155,317.074,134.514,318.712z M267.561,318.706c-3.383,3.376-8.875,3.377-12.245,0.006l-21.111-21.117h24.475l8.871,8.871 C270.925,309.846,270.928,315.34,267.561,318.706z M400.586,318.712c-3.371,3.374-8.863,3.369-12.239,0.001l-21.113-21.118h24.477 l8.871,8.871C403.956,309.846,403.959,315.34,400.586,318.712z"/> <path d="M226.018,92.879h199.653c16.152,0,29.293,13.145,29.293,29.304v37.122h-14.935c-4.601,0-8.328,3.729-8.328,8.328v85.148 c0,4.599,3.728,8.328,8.328,8.328c4.601,0,8.328-3.729,8.328-8.328v-76.82h14.935c4.601,0,8.328-3.729,8.328-8.328v-45.45 c0-25.343-20.613-45.961-45.95-45.961H226.018c-4.599,0-8.328,3.729-8.328,8.328C217.69,89.15,221.418,92.879,226.018,92.879z"/> <path d="M72.475,175.962H87.41v76.12c0,4.599,3.729,8.328,8.328,8.328s8.328-3.729,8.328-8.328v-76.12h44.706h14.935v76.12 c0,4.599,3.729,8.328,8.328,8.328s8.328-3.729,8.328-8.328v-84.449c0-4.599-3.729-8.328-8.328-8.328h-14.935v-37.122 c0-16.159,13.141-29.304,29.293-29.304h11.863c4.599,0,8.328-3.729,8.328-8.328c0-4.599-3.729-8.328-8.328-8.328h-88.162 c-25.337,0-45.95,20.617-45.95,45.961v45.45C64.147,172.233,67.875,175.962,72.475,175.962z M80.803,122.184 c0-16.159,13.141-29.304,29.293-29.304h40.928c-6.604,7.961-10.58,18.177-10.58,29.304v37.122H95.739H80.803L80.803,122.184 L80.803,122.184z"/> <circle cx="255.356" cy="221.899" r="8.328"/> <circle cx="295.931" cy="182.256" r="8.328"/> <circle cx="236.145" cy="140.326" r="8.328"/> <circle cx="403.1" cy="159.747" r="8.328"/> </g>
</svg>