<!DOCTYPE svg PUBLIC "-//W3C//DTD SVG 1.1//EN" "http://www.w3.org/Graphics/SVG/1.1/DTD/svg11.dtd">
<!-- Uploaded to: SVG Repo, www.svgrepo.com, Transformed by: SVG Repo Mixer Tools -->
<svg fill="#ff6a00" version="1.1" id="Capa_1" xmlns="http://www.w3.org/2000/svg" xmlns:xlink="http://www.w3.org/1999/xlink" width="800px" height="800px" viewBox="0 0 972.102 972.102" xml:space="preserve">
<g id="SVGRepo_bgCarrier" stroke-width="0"/>
<g id="SVGRepo_tracerCarrier" stroke-linecap="round" stroke-linejoin="round"/>
<g id="SVGRepo_iconCarrier"> <g> <g> <path d="M970.922,367.592h-32.9c-102.438,0-194.23-59.858-195.096-60.432l-18.719-12.458l-18.791,12.347 c-0.434,0.285-21.186,13.745-53.672,27.899l35.678-139.698H790.58v-65H636.938l-22.707,88.908L0,218.719L66.243,572.41h431.931 c0.68,2.534,1.375,5.076,2.096,7.629c1.248,4.415,2.555,8.769,3.889,13.094H150.536c-53.852,0-97.663,43.812-97.663,97.663 s43.812,97.663,97.663,97.663c53.851,0,97.663-43.812,97.663-97.663c0-11.451-1.987-22.444-5.625-32.663h173.111 c-3.637,10.219-5.625,21.212-5.625,32.663c0,53.853,43.812,97.663,97.663,97.663c32.367,0,61.102-15.831,78.883-40.153 c34.623,40.097,76.613,69.896,125.164,88.762l12.314,4.784l12.314-4.784c57.336-22.277,105.527-59.803,143.232-111.529 c29.43-40.372,52.398-89.325,68.27-145.498c26.57-94.051,24.215-176.117,24.102-179.564L970.922,367.592z M183.199,690.796 c0,18.011-14.652,32.663-32.663,32.663c-18.011,0-32.663-14.652-32.663-32.663s14.652-32.663,32.663-32.663 C168.547,658.133,183.199,672.785,183.199,690.796z M724.086,768.516c-39.396-17.792-73.01-45.428-100.059-82.298 c-23.049-31.417-41.568-69.668-55.117-113.808c-0.934-3.042-1.846-6.108-2.73-9.206c-8.996-31.438-14.348-61.685-17.523-87.29 c-2.008-16.188-3.152-30.522-3.789-42.113c5.051-0.513,10.057-1.13,15.012-1.836c25.428-3.622,49.5-9.655,71.346-16.672 c40.602-13.044,73.471-29.493,92.773-40.248c31.584,17.746,99.539,50.819,179.305,58.786c-1.65,29.94-6.635,78.086-21.311,129.373 c-13.748,48.044-33.211,89.432-57.848,123.014C797.096,723.088,763.482,750.724,724.086,768.516z M120.199,507.41L78.314,283.775 l519.319,0.371l-19.229,75.282c-21.562,4.946-44.652,8.163-68.254,8.163h-32.902l-1.081,32.883 c-0.083,2.511-1.352,46.745,8.234,106.936H120.199z M507.725,723.459c-18.012,0-32.664-14.652-32.664-32.663 s14.652-32.663,32.664-32.663c18.01,0,32.662,14.652,32.662,32.663S525.734,723.459,507.725,723.459z"/> </g> </g> </g>
</svg>